<?xml version="1.0" encoding="UTF-8" standalone="no"?>
<!-- Created with Inkscape (http://www.inkscape.org/) -->

<svg
   xmlns:osb="http://www.openswatchbook.org/uri/2009/osb"
   xmlns:dc="http://purl.org/dc/elements/1.1/"
   xmlns:cc="http://creativecommons.org/ns#"
   xmlns:rdf="http://www.w3.org/1999/02/22-rdf-syntax-ns#"
   xmlns:svg="http://www.w3.org/2000/svg"
   xmlns="http://www.w3.org/2000/svg"
   xmlns:sodipodi="http://sodipodi.sourceforge.net/DTD/sodipodi-0.dtd"
   xmlns:inkscape="http://www.inkscape.org/namespaces/inkscape"
   width="20"
   height="20"
   id="svg2"
   version="1.1"
   inkscape:version="0.48.4 r9939"
   sodipodi:docname="alarm-leak-detection.svg">
  <defs
     id="defs4">
    <linearGradient
       id="linearGradient3976"
       osb:paint="solid">
      <stop
         style="stop-color:#000000;stop-opacity:1;"
         offset="0"
         id="stop3978" />
    </linearGradient>
  </defs>
  <sodipodi:namedview
     id="base"
     pagecolor="#ffffff"
     bordercolor="#666666"
     borderopacity="1.0"
     inkscape:pageopacity="0.0"
     inkscape:pageshadow="2"
     inkscape:zoom="22.627417"
     inkscape:cx="11.483918"
     inkscape:cy="7.1215366"
     inkscape:document-units="px"
     inkscape:current-layer="layer7"
     showgrid="false"
     inkscape:window-width="1920"
     inkscape:window-height="1018"
     inkscape:window-x="-8"
     inkscape:window-y="-8"
     inkscape:window-maximized="1" />
  <metadata
     id="metadata7">
    <rdf:RDF>
      <cc:Work
         rdf:about="">
        <dc:format>image/svg+xml</dc:format>
        <dc:type
           rdf:resource="http://purl.org/dc/dcmitype/StillImage" />
        <dc:title></dc:title>
      </cc:Work>
    </rdf:RDF>
  </metadata>
  <g
     inkscape:label="background"
     inkscape:groupmode="layer"
     id="layer1"
     transform="translate(0,-1032.3622)" />
  <g
     inkscape:groupmode="layer"
     id="layer3"
     inkscape:label="Triangle"
     style="display:inline">
    <path
       style="fill:#feb212"
       d="M 2.6539501,16.847536 C 0.9894008,15.967963 1.0555693,15.752242 5.1551925,8.6930496 9.3195292,1.522426 9.2201659,1.6555708 10.314991,1.7789735 c 0.984275,0.1109421 0.754624,-0.2342109 6.592447,9.9080775 2.17472,3.778231 2.277486,4.559713 0.686995,5.224263 -0.574163,0.2399 -14.4781087,0.180548 -14.9404829,-0.06378 z M 16.676948,15.641862 C 17.358946,15.024527 16.73872,13.707376 11.742463,5.1626825 10.163388,2.4621166 10.166544,2.4597851 6.2295375,9.2359054 2.7375027,15.246169 2.7389674,15.242528 3.6194808,15.724253 4.0749653,15.973446 16.396523,15.895698 16.676948,15.641862 z"
       id="path3184"
       inkscape:connector-curvature="0" />
  </g>
  <g
     inkscape:groupmode="layer"
     id="layer7"
     inkscape:label="Leak detection draw">
    <rect
       style="fill:#000000;fill-opacity:1;stroke-width:0.40000001;stroke-miterlimit:4;stroke-dasharray:none"
       id="rect5691"
       width="2.4306796"
       height="1.767767"
       x="8.0654364"
       y="7.6256313" />
    <rect
       style="fill:#000000;fill-opacity:1;stroke-width:0.40000001;stroke-miterlimit:4;stroke-dasharray:none"
       id="rect5693"
       width="1.3700194"
       height="2.4306796"
       x="12.882602"
       y="11.558913" />
    <rect
       style="fill:#000000;fill-opacity:1;stroke-width:0.40000001;stroke-miterlimit:4;stroke-dasharray:none"
       id="rect5695"
       width="1.3258252"
       height="3.0935922"
       x="11.844039"
       y="11.205359" />
    <rect
       style="fill:#000000;fill-opacity:1;stroke-width:0.40000001;stroke-miterlimit:4;stroke-dasharray:none"
       id="rect5697"
       width="2.9831066"
       height="1.4142135"
       x="7.8002715"
       y="8.9072628" />
    <path
       style="color:#000000;fill:#000000;stroke:#000000;stroke-width:0;stroke-linecap:butt;stroke-linejoin:miter;stroke-miterlimit:4;stroke-opacity:1;stroke-dasharray:none;stroke-dashoffset:0;marker:none;visibility:visible;display:inline;overflow:visible;enable-background:accumulate;fill-opacity:1"
       d="m 8.1759221,10.034214 c 0,0 -0.4419417,3.955378 3.7344079,3.889087 -0.04419,-0.0221 -0.0221,-2.364388 -0.0221,-2.364388 0,0 -1.458408,0.176777 -1.502602,-1.37002 0.0221,-0.04419 -2.2097089,-0.154679 -2.2097089,-0.154679 z"
       id="path5699"
       inkscape:connector-curvature="0" />
    <path
       style="color:#000000;fill:#000000;stroke:#000000;stroke-width:0;stroke-linecap:butt;stroke-linejoin:miter;stroke-miterlimit:4;stroke-opacity:1;stroke-dasharray:none;stroke-dashoffset:0;marker:none;visibility:visible;display:inline;overflow:visible;enable-background:accumulate;fill-opacity:1"
       d="m 8.59375,13.429688 c 0,0 -0.2265625,0.257812 -0.2265625,0.421875 0,0.164062 0.054687,0.289062 0.234375,0.289062 0.1796875,0 0.2578125,-0.109375 0.2578125,-0.265625 0,-0.132812 -0.265625,-0.445312 -0.265625,-0.445312 z"
       id="path5701"
       inkscape:connector-curvature="0" />
    <path
       style="color:#000000;fill:#000000;fill-opacity:1;stroke:#000000;stroke-width:0;stroke-linecap:butt;stroke-linejoin:miter;stroke-miterlimit:4;stroke-opacity:1;stroke-dasharray:none;stroke-dashoffset:0;marker:none;visibility:visible;display:inline;overflow:visible;enable-background:accumulate"
       d="m 9.3988905,13.773872 c 0,0 -0.4478689,0.509643 -0.4478689,0.833963 0,0.324318 0.1081055,0.571418 0.4633127,0.571418 0.3552065,0 0.509644,-0.216213 0.509644,-0.525088 0,-0.262543 -0.5250878,-0.880293 -0.5250878,-0.880293 z"
       id="path5701-2"
       inkscape:connector-curvature="0" />
  </g>
</svg>
