<?xml version="1.0" encoding="UTF-8" standalone="no"?>
<!-- Created with Inkscape (http://www.inkscape.org/) -->

<svg
   xmlns:osb="http://www.openswatchbook.org/uri/2009/osb"
   xmlns:dc="http://purl.org/dc/elements/1.1/"
   xmlns:cc="http://creativecommons.org/ns#"
   xmlns:rdf="http://www.w3.org/1999/02/22-rdf-syntax-ns#"
   xmlns:svg="http://www.w3.org/2000/svg"
   xmlns="http://www.w3.org/2000/svg"
   xmlns:sodipodi="http://sodipodi.sourceforge.net/DTD/sodipodi-0.dtd"
   xmlns:inkscape="http://www.inkscape.org/namespaces/inkscape"
   width="20"
   height="20"
   id="svg2"
   version="1.1"
   inkscape:version="0.48.4 r9939"
   sodipodi:docname="alarm-temprature.svg">
  <defs
     id="defs4">
    <linearGradient
       id="linearGradient3976"
       osb:paint="solid">
      <stop
         style="stop-color:#000000;stop-opacity:1;"
         offset="0"
         id="stop3978" />
    </linearGradient>
  </defs>
  <sodipodi:namedview
     id="base"
     pagecolor="#ffffff"
     bordercolor="#666666"
     borderopacity="1.0"
     inkscape:pageopacity="0.0"
     inkscape:pageshadow="2"
     inkscape:zoom="16"
     inkscape:cx="11.942876"
     inkscape:cy="15.844264"
     inkscape:document-units="px"
     inkscape:current-layer="layer4"
     showgrid="false"
     inkscape:window-width="1920"
     inkscape:window-height="1018"
     inkscape:window-x="-8"
     inkscape:window-y="-8"
     inkscape:window-maximized="1" />
  <metadata
     id="metadata7">
    <rdf:RDF>
      <cc:Work
         rdf:about="">
        <dc:format>image/svg+xml</dc:format>
        <dc:type
           rdf:resource="http://purl.org/dc/dcmitype/StillImage" />
        <dc:title></dc:title>
      </cc:Work>
    </rdf:RDF>
  </metadata>
  <g
     inkscape:label="background"
     inkscape:groupmode="layer"
     id="layer1"
     transform="translate(0,-1032.3622)" />
  <g
     inkscape:groupmode="layer"
     id="layer3"
     inkscape:label="Triangle"
     style="display:inline">
    <path
       style="fill:#feb212"
       d="M 2.6539501,16.847536 C 0.9894008,15.967963 1.0555693,15.752242 5.1551925,8.6930496 9.3195292,1.522426 9.2201659,1.6555708 10.314991,1.7789735 c 0.984275,0.1109421 0.754624,-0.2342109 6.592447,9.9080775 2.17472,3.778231 2.277486,4.559713 0.686995,5.224263 -0.574163,0.2399 -14.4781087,0.180548 -14.9404829,-0.06378 z M 16.676948,15.641862 C 17.358946,15.024527 16.73872,13.707376 11.742463,5.1626825 10.163388,2.4621166 10.166544,2.4597851 6.2295375,9.2359054 2.7375027,15.246169 2.7389674,15.242528 3.6194808,15.724253 4.0749653,15.973446 16.396523,15.895698 16.676948,15.641862 z"
       id="path3184"
       inkscape:connector-curvature="0" />
  </g>
  <g
     inkscape:groupmode="layer"
     id="layer4"
     inkscape:label="Temprature"
     style="display:inline">
    <path
       style="color:#000000;fill:none;stroke:#000000;stroke-width:0.40000001;stroke-linecap:butt;stroke-linejoin:miter;stroke-miterlimit:4;stroke-opacity:1;stroke-dasharray:none;stroke-dashoffset:0;marker:none;visibility:visible;display:inline;overflow:visible;enable-background:accumulate"
       d="m 10.142563,14.475728 c 0,0 1.281631,0.0221 1.281631,-1.35897 C 11.413146,12.453845 10.761281,12.034 10.761281,12.034 l 0,-4.3089318 c 0,0 -0.03315,-0.4750873 -0.563475,-0.4750873 -0.5303305,0 -0.6408159,0.5192815 -0.6408159,0.5192815 l 0,4.2426406 c 0,0 -0.7292039,0.441942 -0.7292039,1.160098 0,1.347922 1.3147768,1.303727 1.3147768,1.303727 z"
       id="path5482"
       inkscape:connector-curvature="0"
       sodipodi:nodetypes="ccccsccsc" />
    <path
       sodipodi:type="arc"
       style="fill:#000000;fill-opacity:1;stroke-width:0.40000001;stroke-miterlimit:4;stroke-dasharray:none"
       id="path5484"
       sodipodi:cx="10.258573"
       sodipodi:cy="13.299058"
       sodipodi:rx="0.73472816"
       sodipodi:ry="0.73472816"
       d="m 10.993301,13.299058 a 0.73472816,0.73472816 0 1 1 -1.4694566,0 0.73472816,0.73472816 0 1 1 1.4694566,0 z"
       transform="translate(-0.11048544,-0.06629125)" />
    <rect
       style="fill:#000000;fill-opacity:1;stroke-width:0.40000001;stroke-miterlimit:4;stroke-dasharray:none"
       id="rect5486"
       width="0.43089318"
       height="3.2814174"
       x="9.9328537"
       y="9.5812235" />
    <path
       sodipodi:type="arc"
       style="fill:#000000;fill-opacity:1;stroke-width:0.40000001;stroke-miterlimit:4;stroke-dasharray:none"
       id="path5488"
       sodipodi:cx="10.148088"
       sodipodi:cy="9.6640873"
       sodipodi:rx="0.21544659"
       sodipodi:ry="0.3148835"
       d="m 10.363535,9.6640873 a 0.21544659,0.3148835 0 1 1 -0.4308931,0 0.21544659,0.3148835 0 1 1 0.4308931,0 z" />
    <rect
       style="fill:#000000;fill-opacity:1;stroke-width:0.40000001;stroke-miterlimit:4;stroke-dasharray:none"
       id="rect5490-5"
       width="0.46403882"
       height="0.19887379"
       x="11.162265"
       y="10.961621" />
    <rect
       style="fill:#000000;fill-opacity:1;stroke-width:0.40000001;stroke-miterlimit:4;stroke-dasharray:none;display:inline"
       id="rect5490-5-2-3"
       width="0.46403882"
       height="0.19887379"
       x="11.159161"
       y="11.710306" />
    <rect
       style="fill:#000000;fill-opacity:1;stroke-width:0.40000001;stroke-miterlimit:4;stroke-dasharray:none;display:inline"
       id="rect5490-1"
       width="0.46403882"
       height="0.19887379"
       x="11.158606"
       y="10.236501" />
    <rect
       style="fill:#000000;fill-opacity:1;stroke-width:0.40000001;stroke-miterlimit:4;stroke-dasharray:none;display:inline"
       id="rect5490-1-6-8"
       width="0.46403882"
       height="0.19887379"
       x="11.162512"
       y="9.5138435" />
  </g>
</svg>
