<?xml version="1.0" encoding="UTF-8" standalone="no"?>
<!-- Created with Inkscape (http://www.inkscape.org/) -->

<svg
   xmlns:osb="http://www.openswatchbook.org/uri/2009/osb"
   xmlns:dc="http://purl.org/dc/elements/1.1/"
   xmlns:cc="http://creativecommons.org/ns#"
   xmlns:rdf="http://www.w3.org/1999/02/22-rdf-syntax-ns#"
   xmlns:svg="http://www.w3.org/2000/svg"
   xmlns="http://www.w3.org/2000/svg"
   xmlns:sodipodi="http://sodipodi.sourceforge.net/DTD/sodipodi-0.dtd"
   xmlns:inkscape="http://www.inkscape.org/namespaces/inkscape"
   width="20"
   height="20"
   id="svg2"
   version="1.1"
   inkscape:version="0.48.4 r9939"
   sodipodi:docname="alarm-presure.svg">
  <defs
     id="defs4">
    <linearGradient
       id="linearGradient3976"
       osb:paint="solid">
      <stop
         style="stop-color:#000000;stop-opacity:1;"
         offset="0"
         id="stop3978" />
    </linearGradient>
  </defs>
  <sodipodi:namedview
     id="base"
     pagecolor="#ffffff"
     bordercolor="#666666"
     borderopacity="1.0"
     inkscape:pageopacity="0.0"
     inkscape:pageshadow="2"
     inkscape:zoom="22.627417"
     inkscape:cx="11.509318"
     inkscape:cy="7.912766"
     inkscape:document-units="px"
     inkscape:current-layer="layer2"
     showgrid="false"
     inkscape:window-width="1920"
     inkscape:window-height="1018"
     inkscape:window-x="-8"
     inkscape:window-y="-8"
     inkscape:window-maximized="1" />
  <metadata
     id="metadata7">
    <rdf:RDF>
      <cc:Work
         rdf:about="">
        <dc:format>image/svg+xml</dc:format>
        <dc:type
           rdf:resource="http://purl.org/dc/dcmitype/StillImage" />
        <dc:title></dc:title>
      </cc:Work>
    </rdf:RDF>
  </metadata>
  <g
     inkscape:label="background"
     inkscape:groupmode="layer"
     id="layer1"
     transform="translate(0,-1032.3622)" />
  <g
     inkscape:groupmode="layer"
     id="layer3"
     inkscape:label="Triangle"
     style="display:inline">
    <path
       style="fill:#feb212"
       d="M 2.6539501,16.847536 C 0.9894008,15.967963 1.0555693,15.752242 5.1551925,8.6930496 9.3195292,1.522426 9.2201659,1.6555708 10.314991,1.7789735 c 0.984275,0.1109421 0.754624,-0.2342109 6.592447,9.9080775 2.17472,3.778231 2.277486,4.559713 0.686995,5.224263 -0.574163,0.2399 -14.4781087,0.180548 -14.9404829,-0.06378 z M 16.676948,15.641862 C 17.358946,15.024527 16.73872,13.707376 11.742463,5.1626825 10.163388,2.4621166 10.166544,2.4597851 6.2295375,9.2359054 2.7375027,15.246169 2.7389674,15.242528 3.6194808,15.724253 4.0749653,15.973446 16.396523,15.895698 16.676948,15.641862 z"
       id="path3184"
       inkscape:connector-curvature="0" />
  </g>
  <g
     inkscape:groupmode="layer"
     id="layer2"
     inkscape:label="pressure"
     style="display:inline">
    <path
       style="color:#000000;fill:none;stroke:#000000;stroke-width:0.5;stroke-linecap:butt;stroke-linejoin:miter;stroke-miterlimit:4;stroke-opacity:1;stroke-dasharray:none;stroke-dashoffset:0;marker:none;visibility:visible;display:inline;overflow:visible;enable-background:accumulate"
       d="m 6.125,12.359375 c 0,0 -0.140625,1.125 0.640625,1.125 0.84375,0 6.4375,-0.01563 6.4375,-0.01563 0,0 0.734375,-0.01563 0.734375,-0.75 0,-0.71875 -0.484375,-3.875 -3.71875,-3.875 -3.234375,0 -4.015625,2.78125 -4.09375,3.515625 z"
       id="path3970"
       inkscape:connector-curvature="0" />
    <path
       sodipodi:type="arc"
       style="opacity:1;fill:#000000;stroke-width:0.50000000000000000;stroke-miterlimit:4;stroke-dasharray:none"
       id="path3972"
       sodipodi:cx="9.9921875"
       sodipodi:cy="12.375"
       sodipodi:rx="0.3359375"
       sodipodi:ry="0.34375"
       d="m 10.328125,12.375 a 0.3359375,0.34375 0 1 1 -0.671875,0 0.3359375,0.34375 0 1 1 0.671875,0 z" />
    <path
       style="color:#000000;fill:#000000;fill-opacity:1;stroke:#000000;stroke-width:0.1;stroke-linecap:butt;stroke-linejoin:miter;stroke-miterlimit:4;stroke-opacity:1;stroke-dasharray:none;stroke-dashoffset:0;marker:none;visibility:visible;display:inline;overflow:visible;enable-background:accumulate"
       d="m 10.0625,11.898437 c 0,0 0.179688,-0.04687 0.308594,0.06641 0.128906,0.113281 0.121093,0.249999 0.121093,0.292969 0,0.04297 0.0039,0.01172 0.0039,0.01172 l 0.898437,-1.652344 z"
       id="path3974"
       inkscape:connector-curvature="0"
       sodipodi:nodetypes="cssccc" />
    <path
       style="color:#000000;fill:#000000;fill-opacity:1;stroke:#000000;stroke-width:0.1;stroke-linecap:butt;stroke-linejoin:miter;stroke-miterlimit:4;stroke-opacity:1;stroke-dasharray:none;stroke-dashoffset:0;marker:none;visibility:visible;display:inline;overflow:visible;enable-background:accumulate"
       d="m 7.703125,11.414063 0.421875,0.3125 c 0,0 0.8164063,-1.214844 2.003906,-1.152344 1.1875,0.0625 1.488281,0.738281 1.613281,0.941406 0.125,0.203125 0.128906,0.132825 0.128906,0.132825 l 0.441407,-0.25 c 0,0 -0.407591,-1.371371 -2.251341,-1.386996 -1.8437494,-0.01563 -2.358034,1.402621 -2.358034,1.402609 z"
       id="path5426"
       inkscape:connector-curvature="0"
       sodipodi:nodetypes="ccssccsc" />
  </g>
</svg>
