<?xml version="1.0" encoding="UTF-8" standalone="no"?>
<!-- Created with Inkscape (http://www.inkscape.org/) -->

<svg
   xmlns:osb="http://www.openswatchbook.org/uri/2009/osb"
   xmlns:dc="http://purl.org/dc/elements/1.1/"
   xmlns:cc="http://creativecommons.org/ns#"
   xmlns:rdf="http://www.w3.org/1999/02/22-rdf-syntax-ns#"
   xmlns:svg="http://www.w3.org/2000/svg"
   xmlns="http://www.w3.org/2000/svg"
   xmlns:sodipodi="http://sodipodi.sourceforge.net/DTD/sodipodi-0.dtd"
   xmlns:inkscape="http://www.inkscape.org/namespaces/inkscape"
   width="20"
   height="20"
   id="svg2"
   version="1.1"
   inkscape:version="0.48.4 r9939"
   sodipodi:docname="alarm-optica.svg">
  <defs
     id="defs4">
    <linearGradient
       id="linearGradient3976"
       osb:paint="solid">
      <stop
         style="stop-color:#000000;stop-opacity:1;"
         offset="0"
         id="stop3978" />
    </linearGradient>
  </defs>
  <sodipodi:namedview
     id="base"
     pagecolor="#ffffff"
     bordercolor="#666666"
     borderopacity="1.0"
     inkscape:pageopacity="0.0"
     inkscape:pageshadow="2"
     inkscape:zoom="22.627417"
     inkscape:cx="9.6936783"
     inkscape:cy="13.342525"
     inkscape:document-units="px"
     inkscape:current-layer="layer5"
     showgrid="false"
     inkscape:window-width="1920"
     inkscape:window-height="1018"
     inkscape:window-x="-8"
     inkscape:window-y="-8"
     inkscape:window-maximized="1" />
  <metadata
     id="metadata7">
    <rdf:RDF>
      <cc:Work
         rdf:about="">
        <dc:format>image/svg+xml</dc:format>
        <dc:type
           rdf:resource="http://purl.org/dc/dcmitype/StillImage" />
        <dc:title></dc:title>
      </cc:Work>
    </rdf:RDF>
  </metadata>
  <g
     inkscape:label="background"
     inkscape:groupmode="layer"
     id="layer1"
     transform="translate(0,-1032.3622)" />
  <g
     inkscape:groupmode="layer"
     id="layer3"
     inkscape:label="Triangle"
     style="display:inline">
    <path
       style="fill:#feb212"
       d="M 2.6539501,16.847536 C 0.9894008,15.967963 1.0555693,15.752242 5.1551925,8.6930496 9.3195292,1.522426 9.2201659,1.6555708 10.314991,1.7789735 c 0.984275,0.1109421 0.754624,-0.2342109 6.592447,9.9080775 2.17472,3.778231 2.277486,4.559713 0.686995,5.224263 -0.574163,0.2399 -14.4781087,0.180548 -14.9404829,-0.06378 z M 16.676948,15.641862 C 17.358946,15.024527 16.73872,13.707376 11.742463,5.1626825 10.163388,2.4621166 10.166544,2.4597851 6.2295375,9.2359054 2.7375027,15.246169 2.7389674,15.242528 3.6194808,15.724253 4.0749653,15.973446 16.396523,15.895698 16.676948,15.641862 z"
       id="path3184"
       inkscape:connector-curvature="0" />
  </g>
  <g
     inkscape:groupmode="layer"
     id="layer5"
     inkscape:label="Optica">
    <path
       sodipodi:type="arc"
       style="fill:#000000;fill-opacity:1;stroke-width:0.40000001;stroke-miterlimit:4;stroke-dasharray:none"
       id="path5612"
       sodipodi:cx="11.453125"
       sodipodi:cy="11.765625"
       sodipodi:rx="3.703125"
       sodipodi:ry="3.703125"
       d="m 15.15625,11.765625 a 3.703125,3.703125 0 1 1 -7.40625,0 3.703125,3.703125 0 1 1 7.40625,0 z"
       transform="translate(-1.40625,-0.3125)" />
    <path
       sodipodi:type="arc"
       style="fill:#ffffff;fill-opacity:1;stroke-width:0.40000001;stroke-miterlimit:4;stroke-dasharray:none"
       id="path5616"
       sodipodi:cx="10.921875"
       sodipodi:cy="12.328125"
       sodipodi:rx="3.015625"
       sodipodi:ry="3.015625"
       d="m 13.9375,12.328125 a 3.015625,3.015625 0 1 1 -6.03125,0 3.015625,3.015625 0 1 1 6.03125,0 z"
       transform="translate(-0.875,-0.84375)" />
    <path
       sodipodi:type="arc"
       style="fill:#000000;fill-opacity:1;stroke-width:0.40000001;stroke-miterlimit:4;stroke-dasharray:none"
       id="path5616-7"
       sodipodi:cx="10.921875"
       sodipodi:cy="12.328125"
       sodipodi:rx="3.015625"
       sodipodi:ry="3.015625"
       d="m 13.9375,12.328125 a 3.015625,3.015625 0 1 1 -6.03125,0 3.015625,3.015625 0 1 1 6.03125,0 z"
       transform="matrix(0.79274611,0,0,0.79274611,1.404226,1.6644268)" />
    <path
       sodipodi:type="arc"
       style="fill:#ffffff;fill-opacity:1;stroke-width:0.40000001;stroke-miterlimit:4;stroke-dasharray:none"
       id="path5612-8-7"
       sodipodi:cx="11.453125"
       sodipodi:cy="11.765625"
       sodipodi:rx="3.703125"
       sodipodi:ry="3.703125"
       d="m 15.15625,11.765625 a 3.703125,3.703125 0 1 1 -7.40625,0 3.703125,3.703125 0 1 1 7.40625,0 z"
       transform="matrix(0.36708861,0,0,0.36708861,4.4519383,8.743473)" />
    <path
       sodipodi:type="arc"
       style="fill:#000000;fill-opacity:1;stroke-width:0.40000001;stroke-miterlimit:4;stroke-dasharray:none"
       id="path5616-2-1"
       sodipodi:cx="10.921875"
       sodipodi:cy="12.328125"
       sodipodi:rx="3.015625"
       sodipodi:ry="3.015625"
       d="m 13.9375,12.328125 a 3.015625,3.015625 0 1 1 -6.03125,0 3.015625,3.015625 0 1 1 6.03125,0 z"
       transform="matrix(0.30491244,0,0,0.30491244,5.3260344,9.314973)" />
  </g>
</svg>
