<?xml version="1.0" encoding="utf-8"?>
<!-- Generator: Adobe Illustrator 18.0.0, SVG Export Plug-In . SVG Version: 6.00 Build 0)  -->
<!DOCTYPE svg PUBLIC "-//W3C//DTD SVG 1.1//EN" "http://www.w3.org/Graphics/SVG/1.1/DTD/svg11.dtd">
<svg version="1.1" xmlns="http://www.w3.org/2000/svg" xmlns:xlink="http://www.w3.org/1999/xlink" x="0px" y="0px"
	 viewBox="0 0 60 60" enable-background="new 0 0 60 60" xml:space="preserve">
<g id="Layer_1">
</g>
<g id="Layer_4">
	<polygon fill="#FFFFFF" points="22.8,46.8 11,49.7 14.3,38.1 	"/>
</g>
<g id="Layer_3">
	<g>
		<polygon fill="#FFFFFF" points="16.2,35.3 25.6,44.5 44.1,26.1 34.8,16.9 		"/>
		<path fill="#FFFFFF" d="M49.7,17.9l-6.4-6.5c-0.8-0.8-2-0.8-2.8,0l-3.3,3.2l9.4,9.2l3.1-3.1C50.4,19.9,50.4,18.6,49.7,17.9z"/>
	</g>
</g>
<g id="Layer_5">
	<polygon fill="#DBDBDB" points="22.8,45.8 11,48.7 14.3,37.1 	"/>
	<g>
		<polygon fill="#DBDBDB" points="16.2,34.3 25.6,43.5 44.1,25.1 34.8,15.9 		"/>
		<path fill="#DBDBDB" d="M49.7,16.9l-6.4-6.5c-0.8-0.8-2-0.8-2.8,0l-3.3,3.2l9.4,9.2l3.1-3.1C50.4,18.9,50.4,17.6,49.7,16.9z"/>
	</g>
</g>
</svg>
